<svg width="353" height="353" xmlns="http://www.w3.org/2000/svg" xmlns:xlink="http://www.w3.org/1999/xlink" overflow="hidden"><defs><clipPath id="clip0"><rect x="139" y="54" width="353" height="353"/></clipPath></defs><g clip-path="url(#clip0)" transform="translate(-139 -54)"><path d="M457.991 228.073C455.174 224.867 388.189 149.604 315.5 149.604 242.811 149.604 175.826 224.867 173.009 228.073 171.79 229.461 171.79 231.539 173.009 232.927 175.826 236.133 242.811 311.396 315.5 311.396 388.189 311.396 455.174 236.133 457.991 232.927 459.21 231.539 459.21 229.461 457.991 228.073ZM245.635 230.5C245.635 191.915 276.915 160.635 315.5 160.635 354.085 160.635 385.365 191.915 385.365 230.5 385.365 269.085 354.085 300.365 315.5 300.365 276.933 300.322 245.678 269.067 245.635 230.5ZM180.768 230.5C190.328 220.351 229.221 181.165 275.464 164.515 275.644 164.449 275.659 164.478 275.493 164.577 239.085 186.55 227.383 233.877 249.356 270.286 255.817 280.991 264.788 289.962 275.493 296.423 275.659 296.522 275.644 296.551 275.464 296.485 229.221 279.835 190.314 240.649 180.768 230.5ZM355.536 296.485C355.356 296.551 355.341 296.522 355.507 296.423 391.915 274.45 403.617 227.123 381.644 190.714 375.183 180.009 366.212 171.038 355.507 164.577 355.341 164.478 355.356 164.449 355.536 164.515 401.779 181.165 440.686 220.351 450.232 230.5 440.686 240.649 401.779 279.835 355.536 296.485Z" fill="#1B204C"/><path d="M315.5 197.406C297.223 197.406 282.406 212.223 282.406 230.5 282.406 248.777 297.223 263.594 315.5 263.594 333.777 263.594 348.594 248.777 348.594 230.5 348.571 212.232 333.768 197.429 315.5 197.406ZM315.5 256.24C301.284 256.24 289.76 244.716 289.76 230.5 289.76 216.284 301.284 204.76 315.5 204.76 329.716 204.76 341.24 216.284 341.24 230.5 341.223 244.709 329.709 256.223 315.5 256.24Z" fill="#1B204C"/></g></svg>