<svg xmlns="http://www.w3.org/2000/svg" viewBox="0 0 144.95 255.39"><defs><style>.cls-1{fill:#111c4e;}.cls-2{fill:#244392;}.cls-3{fill:#304091;}.cls-4{fill:#413e90;}.cls-5{fill:#503b8e;}.cls-6{fill:#5e388d;}.cls-7{fill:#6c368c;}.cls-8{fill:#79348b;}.cls-9{fill:#87328a;}.cls-10{fill:#952f89;}.cls-11{fill:#a12d88;}.cls-12{fill:#ae2b87;}</style></defs><g id="Layer_2" data-name="Layer 2"><g id="Layer_1-2" data-name="Layer 1"><path class="cls-1" d="M138.05,165.66v27.61H110.44V172.56h-6.9v20.71H27.61V172.56h-6.9v27.61H6.9V172.56H0v28.2a4.17,4.17,0,0,0,1.21,2.93l2.18,2.17a4.13,4.13,0,0,0,2.93,1.21h15a4.13,4.13,0,0,0,2.93-1.21l2.18-2.17a4.17,4.17,0,0,0,1.21-2.93v-.59h76.51a4.13,4.13,0,0,0,2.93-1.21l2.18-2.18a4.16,4.16,0,0,0,1.21-2.93v6.32h28.19a4.11,4.11,0,0,0,2.93-1.21l2.18-2.18a4.11,4.11,0,0,0,1.21-2.93V165.66Z"/><rect class="cls-1" x="103.54" y="204.76" width="6.9" height="6.9" rx="1.55"/><rect class="cls-1" x="93.18" y="204.76" width="6.9" height="6.9" rx="1.55"/><rect class="cls-1" x="10.35" y="163.38" width="6.9" height="6.9" rx="1.55"/><path class="cls-1" d="M6.9,220.88H0v28.19A4.16,4.16,0,0,0,1.21,252l2.18,2.18a4.13,4.13,0,0,0,2.93,1.21H26.46v-6.9H6.9Z"/><path class="cls-1" d="M143.74,224.27l-2.18-2.18a4.16,4.16,0,0,0-2.93-1.21H119.06a4.16,4.16,0,0,0-2.93,1.21L114,224.27a4.16,4.16,0,0,0-1.21,2.93v28.19h6.9V227.78h18.41v27.61H145V227.2A4.11,4.11,0,0,0,143.74,224.27Z"/><path class="cls-1" d="M104.24,224.27l-2.17-2.18a4.17,4.17,0,0,0-2.93-1.21H75v6.9H98.55v6.9h-19a4.14,4.14,0,0,0-2.93,1.22l-2.18,2.17A4.17,4.17,0,0,0,73.24,241v8.07A4.16,4.16,0,0,0,74.45,252l2.18,2.18a4.13,4.13,0,0,0,2.93,1.21H99.14a4.13,4.13,0,0,0,2.93-1.21l2.17-2.18a4.11,4.11,0,0,0,1.21-2.93V227.2A4.11,4.11,0,0,0,104.24,224.27Zm-24.1,24.22v-2.93h0v-4H98.55v6.9Z"/><path class="cls-1" d="M64.74,224.27l-2.17-2.18a4.17,4.17,0,0,0-2.93-1.21H40.06a4.17,4.17,0,0,0-2.93,1.21L35,224.27a4.12,4.12,0,0,0-1.22,2.93v21.87A4.12,4.12,0,0,0,35,252l2.17,2.18a4.13,4.13,0,0,0,2.93,1.21H64.23v-6.9H40.65v-9.86h0V227.78h18.4v2.93h0v4H47A4.14,4.14,0,0,0,44,235.9l-2.17,2.17A4.13,4.13,0,0,0,40.66,241v.59h19a4.14,4.14,0,0,0,2.93-1.22l2.17-2.17A4.14,4.14,0,0,0,66,235.27V227.2A4.12,4.12,0,0,0,64.74,224.27Z"/><path class="cls-2" d="M72.48,3.45h0A3.45,3.45,0,0,1,69,6.9H3.57A3.53,3.53,0,0,1,0,3.52,3.45,3.45,0,0,1,3.45,0H69A3.46,3.46,0,0,1,72.48,3.45Z"/><path class="cls-2" d="M110.36,6.9h31A3.51,3.51,0,0,0,145,3.52,3.45,3.45,0,0,0,141.5,0H110.36A3.39,3.39,0,0,0,107,3.42v.07A3.38,3.38,0,0,0,110.36,6.9Z"/><rect class="cls-3" y="13.8" width="72.48" height="6.9" rx="3.45"/><path class="cls-3" d="M141.5,13.8H107.79A3.4,3.4,0,0,0,104.64,16l-.06.15a3.37,3.37,0,0,0,3.15,4.59H141.5A3.45,3.45,0,0,0,145,17.26h0A3.45,3.45,0,0,0,141.5,13.8Z"/><path class="cls-4" d="M98.32,34.51H141.5A3.44,3.44,0,0,0,145,31.06h0a3.44,3.44,0,0,0-3.45-3.45h-43a3.34,3.34,0,0,0-2.32.93l-.17.15A3.37,3.37,0,0,0,98.32,34.51Z"/><rect class="cls-4" y="27.61" width="72.48" height="6.9" rx="3.45"/><path class="cls-5" d="M46.63,41.41H3.57A3.54,3.54,0,0,0,0,44.8a3.45,3.45,0,0,0,3.45,3.52h43a3.37,3.37,0,0,0,2.32-.93l.17-.15A3.38,3.38,0,0,0,46.63,41.41Z"/><path class="cls-5" d="M141.5,48.32A3.45,3.45,0,0,0,145,44.8a3.52,3.52,0,0,0-3.56-3.39H75.93a3.45,3.45,0,0,0-3.45,3.46h0a3.45,3.45,0,0,0,3.45,3.45Z"/><path class="cls-6" d="M3.45,55.22A3.45,3.45,0,0,0,0,58.67H0a3.45,3.45,0,0,0,3.45,3.45H37.16A3.38,3.38,0,0,0,40.31,60l.06-.16a3.36,3.36,0,0,0-3.15-4.58Z"/><rect class="cls-6" x="72.48" y="55.22" width="72.48" height="6.9" rx="3.45"/><path class="cls-7" d="M34.59,69H3.45A3.46,3.46,0,0,0,0,72.48H0a3.46,3.46,0,0,0,3.45,3.45H34.59A3.38,3.38,0,0,0,38,72.51v-.07A3.38,3.38,0,0,0,34.59,69Z"/><rect class="cls-7" x="72.48" y="69.02" width="72.48" height="6.9" rx="3.45"/><path class="cls-8" d="M3.45,82.83A3.45,3.45,0,0,0,0,86.28H0a3.45,3.45,0,0,0,3.45,3.45H37.22a3.36,3.36,0,0,0,3.15-4.58L40.31,85a3.38,3.38,0,0,0-3.15-2.16Z"/><rect class="cls-8" x="72.48" y="82.83" width="72.48" height="6.9" rx="3.45"/><path class="cls-9" d="M141.5,103.54A3.45,3.45,0,0,0,145,100a3.52,3.52,0,0,0-3.56-3.39H75.93a3.45,3.45,0,0,0-3.45,3.46h0a3.45,3.45,0,0,0,3.45,3.45Z"/><path class="cls-9" d="M46.46,96.63H3.57A3.54,3.54,0,0,0,0,100a3.45,3.45,0,0,0,3.45,3.52H46.63A3.37,3.37,0,0,0,49,97.72l-.17-.16A3.37,3.37,0,0,0,46.46,96.63Z"/><path class="cls-10" d="M3.45,110.44A3.45,3.45,0,0,0,0,113.89H0a3.45,3.45,0,0,0,3.45,3.45H69a3.45,3.45,0,0,0,3.46-3.45h0A3.45,3.45,0,0,0,69,110.44Z"/><path class="cls-10" d="M141.5,110.44H98.32A3.37,3.37,0,0,0,96,116.26l.17.15a3.34,3.34,0,0,0,2.32.93h43a3.44,3.44,0,0,0,3.45-3.45h0A3.44,3.44,0,0,0,141.5,110.44Z"/><path class="cls-11" d="M141.5,131.15A3.45,3.45,0,0,0,145,127.7h0a3.45,3.45,0,0,0-3.45-3.46H107.73a3.37,3.37,0,0,0-3.15,4.59l.06.15a3.4,3.4,0,0,0,3.15,2.17Z"/><path class="cls-11" d="M3.45,124.24A3.46,3.46,0,0,0,0,127.7H0a3.46,3.46,0,0,0,3.45,3.45H69a3.46,3.46,0,0,0,3.46-3.45h0A3.46,3.46,0,0,0,69,124.24Z"/><rect class="cls-12" y="138.05" width="72.48" height="6.9" rx="3.45"/><path class="cls-12" d="M110.36,145H141.5A3.44,3.44,0,0,0,145,141.5h0a3.44,3.44,0,0,0-3.45-3.45H110.36a3.39,3.39,0,0,0-3.37,3.42v.07A3.38,3.38,0,0,0,110.36,145Z"/></g></g></svg>